<svg width="24" height="24" viewBox="0 0 24 24" fill="none" xmlns="http://www.w3.org/2000/svg">
<g id="SVG" clip-path="url(#clip0_2_67)">
<path id="Vector" d="M18 15.9846V15.0936C18 13.0776 14.0153 11.9999 12 11.9999C9.98477 11.9999 6.00002 13.0784 6.00002 15.0936V15.9846H18ZM12 5.29712C10.5 5.29712 9.28127 6.51587 9.28127 8.01587C9.28127 9.51587 10.5 10.6881 12 10.6881C13.5 10.6881 14.7188 9.51587 14.7188 8.01587C14.7188 6.51587 13.5 5.29712 12 5.29712ZM18.9848 2.01587C20.0633 2.01587 21.0008 2.90687 21.0008 3.98462V18.0006C21.0008 19.0791 20.0633 20.0166 18.9848 20.0166H15L12 23.0166L9.00002 20.0166H5.01527C3.89027 20.0166 2.99927 19.0791 2.99927 18.0006V3.98462C2.99927 2.90612 3.89027 2.01587 5.01527 2.01587H18.9848Z" fill="#3382D1"/>
</g>
<defs>
<clipPath id="clip0_2_67">
<rect width="24" height="24" fill="white"/>
</clipPath>
</defs>
</svg>
