<svg width="24" height="25" viewBox="0 0 24 25" fill="none" xmlns="http://www.w3.org/2000/svg">
<g id="SVG" clip-path="url(#clip0_2_73)">
<path id="Vector" d="M15.2003 3.58013C15.2003 4.0004 15.1175 4.41654 14.9566 4.80482C14.7958 5.19309 14.5601 5.54588 14.2629 5.84305C13.9657 6.14022 13.613 6.37595 13.2247 6.53678C12.8364 6.69761 12.4203 6.78038 12 6.78038C11.5797 6.78038 11.1636 6.69761 10.7753 6.53678C10.387 6.37595 10.0343 6.14022 9.73708 5.84305C9.43991 5.54588 9.20418 5.19309 9.04335 4.80482C8.88253 4.41654 8.79975 4.0004 8.79975 3.58013C8.79975 2.73137 9.13692 1.91738 9.73708 1.31721C10.3372 0.717051 11.1512 0.379883 12 0.379883C12.8488 0.379883 13.6628 0.717051 14.2629 1.31721C14.8631 1.91738 15.2002 2.73137 15.2003 3.58013ZM9.318 19.4044C8.86846 19.9567 8.30151 20.4019 7.65836 20.7077C7.01521 21.0135 6.31202 21.1722 5.59987 21.1722C4.88773 21.1722 4.18454 21.0135 3.54139 20.7077C2.89824 20.4019 2.33129 19.9567 1.88175 19.4044C1.29017 19.9273 0.816481 20.5699 0.492067 21.2897C0.167653 22.0095 -7.48888e-05 22.7901 2.50836e-08 23.5796C2.50836e-08 24.0214 0.35775 24.3799 0.80025 24.3799H10.4002C10.842 24.3799 11.2005 24.0221 11.2005 23.5796C11.2006 22.7901 11.0328 22.0095 10.7084 21.2897C10.384 20.5699 9.91033 19.9273 9.31875 19.4044H9.318Z" fill="#3382D1"/>
<path id="Vector_2" d="M8.79973 16.3796C8.79973 16.7999 8.71695 17.216 8.55613 17.6043C8.3953 17.9926 8.15957 18.3454 7.8624 18.6425C7.56523 18.9397 7.21244 19.1754 6.82416 19.3363C6.43589 19.4971 6.01974 19.5799 5.59948 19.5799C5.17922 19.5799 4.76307 19.4971 4.3748 19.3363C3.98653 19.1754 3.63373 18.9397 3.33656 18.6425C3.03939 18.3454 2.80366 17.9926 2.64284 17.6043C2.48201 17.216 2.39923 16.7999 2.39923 16.3796C2.39923 15.5308 2.7364 14.7169 3.33656 14.1167C3.93673 13.5165 4.75072 13.1794 5.59948 13.1794C6.44824 13.1794 7.26224 13.5165 7.8624 14.1167C8.46256 14.7169 8.79973 15.5308 8.79973 16.3796ZM21.6 16.3796C21.6 17.2284 21.2628 18.0424 20.6626 18.6425C20.0625 19.2427 19.2485 19.5799 18.3997 19.5799C17.551 19.5799 16.737 19.2427 16.1368 18.6425C15.5366 18.0424 15.1995 17.2284 15.1995 16.3796C15.1995 15.5308 15.5366 14.7169 16.1368 14.1167C16.737 13.5165 17.551 13.1794 18.3997 13.1794C19.2485 13.1794 20.0625 13.5165 20.6626 14.1167C21.2628 14.7169 21.6 15.5308 21.6 16.3796ZM14.1712 15.8081L12.7995 14.4446V13.1801C12.7995 12.9679 12.7152 12.7643 12.5651 12.6142C12.415 12.4642 12.2115 12.3799 11.9992 12.3799C11.787 12.3799 11.5834 12.4642 11.4334 12.6142C11.2833 12.7643 11.199 12.9679 11.199 13.1801V14.4529L9.82723 15.8164C9.51523 16.1284 9.51523 16.6391 9.82723 16.9519C10.1392 17.2646 10.65 17.2639 10.9627 16.9519L11.991 15.9079L13.0192 16.9444C13.1701 17.0943 13.3742 17.1785 13.587 17.1785C13.7997 17.1785 14.0038 17.0943 14.1547 16.9444C14.2317 16.8716 14.2933 16.7842 14.3358 16.6872C14.3783 16.5902 14.401 16.4857 14.4024 16.3798C14.4038 16.2739 14.3839 16.1688 14.344 16.0707C14.304 15.9727 14.2447 15.8836 14.1697 15.8089L14.1712 15.8081ZM15.7177 6.60486C15.2682 7.15718 14.7012 7.60241 14.0581 7.9082C13.4149 8.21398 12.7117 8.37264 11.9996 8.37264C11.2875 8.37264 10.5843 8.21398 9.94112 7.9082C9.29797 7.60241 8.73102 7.15718 8.28148 6.60486C7.6899 7.12775 7.21621 7.77039 6.8918 8.49021C6.56738 9.21002 6.39966 9.99057 6.39973 10.7801C6.39973 11.2219 6.75748 11.5804 7.19998 11.5804H16.8C17.2417 11.5804 17.6002 11.2226 17.6002 10.7801C17.6003 9.99057 17.4326 9.21002 17.1082 8.49021C16.7838 7.77039 16.3093 7.12775 15.7177 6.60486Z" fill="#3382D1"/>
<path id="Vector_3" d="M22.1182 19.4044C21.6687 19.9567 21.1017 20.402 20.4586 20.7078C19.8154 21.0135 19.1123 21.1722 18.4001 21.1722C17.688 21.1722 16.9848 21.0135 16.3416 20.7078C15.6985 20.402 15.1315 19.9567 14.682 19.4044C14.0904 19.9273 13.6167 20.57 13.2923 21.2898C12.9679 22.0096 12.8002 22.7901 12.8002 23.5797C12.8002 24.0214 13.158 24.3799 13.6005 24.3799H23.2005C23.6422 24.3799 24.0007 24.0222 24.0007 23.5797C24.0008 22.7901 23.8331 22.0096 23.5087 21.2898C23.1843 20.57 22.7106 19.9273 22.119 19.4044H22.1182Z" fill="#3382D1"/>
</g>
<defs>
<clipPath id="clip0_2_73">
<rect width="24" height="24" fill="white" transform="translate(0 0.379883)"/>
</clipPath>
</defs>
</svg>
