<svg width="24" height="25" viewBox="0 0 24 25" fill="none" xmlns="http://www.w3.org/2000/svg">
<g id="SVG" clip-path="url(#clip0_2_81)">
<path id="Vector" d="M13.722 16.7497H9.6C9.07472 16.7498 8.55456 16.6464 8.06925 16.4454C7.58393 16.2444 7.14296 15.9498 6.77153 15.5784C6.4001 15.2069 6.10548 14.766 5.90451 14.2807C5.70354 13.7953 5.60015 13.2752 5.60025 12.7499V7.14966H2.4C1.76348 7.14966 1.15303 7.40251 0.702944 7.8526C0.252856 8.30269 0 8.91314 0 9.54966L0 15.9494C0 16.5859 0.252856 17.1964 0.702944 17.6465C1.15303 18.0966 1.76348 18.3494 2.4 18.3494H3.50475L4.5255 20.3917C4.64677 20.6375 4.81535 20.8571 5.0216 21.0377C5.22784 21.2183 5.4677 21.3565 5.72743 21.4443C5.98715 21.5321 6.26165 21.5677 6.53519 21.5493C6.80872 21.5308 7.07593 21.4586 7.3215 21.3367C7.73275 21.1354 8.06526 20.8029 8.2665 20.3917L9.29475 18.3494H14.514L13.722 16.7497Z" fill="#3382D1"/>
<path id="Vector_2" d="M21.6 3.95007H9.60001C8.96349 3.95007 8.35304 4.20293 7.90296 4.65302C7.45287 5.1031 7.20001 5.71355 7.20001 6.35007V12.7498C7.20001 13.3863 7.45287 13.9968 7.90296 14.4469C8.35304 14.897 8.96349 15.1498 9.60001 15.1498H14.7045L15.7253 17.1921C15.8465 17.438 16.0151 17.6575 16.2214 17.8381C16.4276 18.0188 16.6675 18.1569 16.9272 18.2447C17.1869 18.3325 17.4614 18.3682 17.7349 18.3497C18.0085 18.3312 18.2757 18.259 18.5213 18.1371C18.9325 17.9358 19.265 17.6033 19.4663 17.1921L20.4945 15.1498H21.5993C22.2358 15.1498 22.8462 14.897 23.2963 14.4469C23.7464 13.9968 23.9993 13.3863 23.9993 12.7498V6.35007C23.9993 5.71355 23.7464 5.1031 23.2963 4.65302C22.8462 4.20293 22.2365 3.95007 21.6 3.95007ZM19.7715 7.72107L14.9715 12.5211C14.8225 12.6706 14.6205 12.7553 14.4094 12.7567C14.1983 12.7581 13.9952 12.6761 13.8443 12.5286L13.8368 12.5211L11.4293 10.1211C11.1173 9.80907 11.1173 9.29832 11.4293 8.98557C11.7413 8.67282 12.252 8.67357 12.5648 8.98557L14.3933 10.8291L18.6218 6.58557C18.7726 6.43544 18.9767 6.35116 19.1895 6.35116C19.4023 6.35116 19.6064 6.43544 19.7573 6.58557C20.085 6.89832 20.085 7.40082 19.7723 7.72107H19.7715Z" fill="#3382D1"/>
</g>
<defs>
<clipPath id="clip0_2_81">
<rect width="24" height="24" fill="white" transform="translate(0 0.749878)"/>
</clipPath>
</defs>
</svg>
