<svg width="24" height="25" viewBox="0 0 24 25" fill="none" xmlns="http://www.w3.org/2000/svg">
<g id="SVG" clip-path="url(#clip0_2_70)">
<path id="Vector" d="M5.60022 3.39022C5.60022 3.28513 5.57952 3.18106 5.53931 3.08397C5.49909 2.98688 5.44015 2.89866 5.36584 2.82435C5.29153 2.75004 5.20331 2.6911 5.10622 2.65088C5.00913 2.61066 4.90506 2.58997 4.79997 2.58997C4.69488 2.58997 4.59082 2.61066 4.49373 2.65088C4.39664 2.6911 4.30842 2.75004 4.23411 2.82435C4.1598 2.89866 4.10086 2.98688 4.06064 3.08397C4.02042 3.18106 3.99972 3.28513 3.99972 3.39022V4.98997H5.59947L5.60022 3.39022ZM21.6 4.98997H20.0002V6.58972C20.0002 6.80196 19.9159 7.0055 19.7658 7.15558C19.6158 7.30565 19.4122 7.38997 19.2 7.38997C18.9877 7.38997 18.7842 7.30565 18.6341 7.15558C18.484 7.0055 18.3997 6.80196 18.3997 6.58972V4.98997H12.7995V6.58972C12.7995 6.80196 12.7152 7.0055 12.5651 7.15558C12.415 7.30565 12.2115 7.38997 11.9992 7.38997C11.787 7.38997 11.5834 7.30565 11.4334 7.15558C11.2833 7.0055 11.199 6.80196 11.199 6.58972V4.98997H5.59947L5.59872 6.58972C5.59872 6.80196 5.51441 7.0055 5.36434 7.15558C5.21426 7.30565 5.01071 7.38997 4.79847 7.38997C4.58623 7.38997 4.38269 7.30565 4.23261 7.15558C4.08254 7.0055 3.99822 6.80196 3.99822 6.58972V4.98997H2.39847C1.76195 4.98997 1.15151 5.24282 0.701418 5.69291C0.251331 6.143 -0.00152588 6.75345 -0.00152588 7.38997V19.39C-0.00152588 20.0265 0.251331 20.6369 0.701418 21.087C1.15151 21.5371 1.76195 21.79 2.39847 21.79H21.5985C22.235 21.79 22.8454 21.5371 23.2955 21.087C23.7456 20.6369 23.9985 20.0265 23.9985 19.39V7.38997C23.9985 6.75345 23.7456 6.143 23.2955 5.69291C22.8454 5.24282 22.235 4.98997 21.5985 4.98997H21.6ZM16.8 14.4377L14.6055 16.0375L15.4207 18.5897C15.5272 18.9175 15.4057 19.2827 15.1237 19.489C14.9865 19.5856 14.8228 19.6375 14.655 19.6375C14.4871 19.6375 14.3234 19.5856 14.1862 19.489L11.9917 17.8892L9.79722 19.489C9.66003 19.5856 9.49631 19.6375 9.32847 19.6375C9.16064 19.6375 8.99691 19.5856 8.85972 19.489C8.72178 19.3895 8.61878 19.249 8.56545 19.0875C8.51211 18.926 8.51116 18.7518 8.56272 18.5897L9.36297 16.0142L7.16847 14.4145C7.0038 14.2805 6.89861 14.087 6.87572 13.876C6.85283 13.6649 6.9141 13.4534 7.04622 13.2872C7.19847 13.0967 7.43472 12.9827 7.67847 12.9902H10.383L11.2207 10.4147C11.2874 10.2126 11.4316 10.0453 11.6216 9.94954C11.8116 9.85377 12.0319 9.83737 12.234 9.90397C12.4777 9.98047 12.6682 10.171 12.7447 10.4147L13.5825 12.9902H16.3027C16.4078 12.9862 16.5126 13.0029 16.6112 13.0394C16.7097 13.0759 16.8002 13.1315 16.8773 13.203C16.9544 13.2744 17.0166 13.3604 17.0605 13.4559C17.1044 13.5514 17.129 13.6547 17.133 13.7597C17.1405 14.0267 17.0107 14.2855 16.7977 14.4377H16.8ZM20.0002 3.39022C20.0002 3.17798 19.9159 2.97443 19.7658 2.82435C19.6158 2.67428 19.4122 2.58997 19.2 2.58997C18.9877 2.58997 18.7842 2.67428 18.6341 2.82435C18.484 2.97443 18.3997 3.17798 18.3997 3.39022V4.98997H20.0002V3.39022ZM12.8002 3.39022C12.8002 3.17798 12.7159 2.97443 12.5658 2.82435C12.4158 2.67428 12.2122 2.58997 12 2.58997C11.7877 2.58997 11.5842 2.67428 11.4341 2.82435C11.284 2.97443 11.1997 3.17798 11.1997 3.39022L11.199 4.98997H12.7995L12.8002 3.39022Z" fill="#3382D1"/>
</g>
<defs>
<clipPath id="clip0_2_70">
<rect width="24" height="24" fill="white" transform="translate(0 0.189941)"/>
</clipPath>
</defs>
</svg>
